<svg xmlns="http://www.w3.org/2000/svg" viewBox="0 0 1200 630" width="1200" height="630" role="img" aria-label="Bodrum Apart Kiralama">
  <defs>
    <linearGradient id="bg" x1="0" y1="0" x2="1" y2="1">
      <stop offset="0%" stop-color="#06343B"/>
      <stop offset="55%" stop-color="#0A4A52"/>
      <stop offset="100%" stop-color="#04252B"/>
    </linearGradient>
  </defs>

  <rect width="1200" height="630" fill="url(#bg)"/>

  <!-- dalga (turkuaz dekor) -->
  <path d="M0 520 Q 200 470, 400 510 T 800 510 T 1200 510 L 1200 630 L 0 630 Z" fill="#0B7E80" opacity="0.35"/>
  <path d="M0 560 Q 200 520, 400 555 T 800 555 T 1200 555 L 1200 630 L 0 630 Z" fill="#04252B" opacity="0.8"/>

  <!-- A3 Yelken işareti -->
  <g transform="translate(72, 64) scale(1.6)">
    <path d="M30 6c10 9 14 20 13 31H30z" fill="#0EA5A5"/>
    <path d="M26 14c-7 7-10 15-9.5 23H26z" fill="#34C8C4"/>
    <path d="M8 45c5-3.6 10-3.6 15 0s10 3.6 15 0 7-2.7 10-1.2" stroke="#0B7E80" stroke-width="3" fill="none" stroke-linecap="round"/>
    <circle cx="45" cy="10" r="5.5" fill="#FFB23E"/>
  </g>

  <!-- metin -->
  <text x="80" y="280" font-family="Plus Jakarta Sans, Helvetica, Arial, sans-serif" font-size="38" fill="#34C8C4" font-weight="600" letter-spacing="6">
    BODRUM APART KİRALAMA
  </text>
  <text x="80" y="380" font-family="Plus Jakarta Sans, Helvetica, Arial, sans-serif" font-size="80" fill="#FFFFFF" font-weight="700">
    Doğrudan ev sahibinden
  </text>
  <text x="80" y="470" font-family="Plus Jakarta Sans, Helvetica, Arial, sans-serif" font-size="80" fill="#FFFFFF" font-weight="700">
    Bodrum&#8217;da apart kiralama
  </text>

  <!-- domain -->
  <text x="80" y="600" font-family="Plus Jakarta Sans, Helvetica, Arial, sans-serif" font-size="22" fill="#FFFFFF" opacity="0.85">
    bodrumapartkiralama.com
  </text>
</svg>
